<?xml version="1.0" encoding="utf-8"?>
<!-- Generator: Adobe Illustrator 19.2.0, SVG Export Plug-In . SVG Version: 6.00 Build 0)  -->
<svg version="1.1" id="Layer_1" xmlns="http://www.w3.org/2000/svg" xmlns:xlink="http://www.w3.org/1999/xlink" x="0px" y="0px"
	 viewBox="0 0 34.7 34.7" style="enable-background:new 0 0 34.7 34.7;" xml:space="preserve">
<style type="text/css">
	.st0{fill:#FBD900;}
	.st1{fill:#FFFFFF;}
	.st2{fill:none;}
</style>
<rect y="0" class="st0" width="34.7" height="34.7"/>
<polygon class="st1" points="7.1,4.7 27.8,4.7 27.8,27.6 17.5,32.2 7.1,27.6 "/>
<g>
	<g>
		<path class="st0" d="M15.5,24.9c0.3,0.6,0.6,1.4,1.2,1.9l0.2,0.1v-2.2h-1.4L15.5,24.9z"/>
		<path class="st0" d="M15.9,22.3L15.9,22.3l-0.1,0.1c-0.2,0.5-0.3,0.9-0.3,1.3v0.1h1.4v-0.1C17,23.1,16.5,22.5,15.9,22.3z"/>
		<path class="st0" d="M18.6,21.1c-0.5-0.8-0.8-1.8-1.1-2.8L17.4,18l-0.1,0.3c-0.3,0.9-0.6,1.9-1.1,2.9l-0.1,0.1l0.1,0.1
			c0.1,0,0.2,0.1,0.2,0.1c0.2,0.1,0.3,0.1,0.4,0.2s0.3,0.2,0.4,0.3c0.1,0.1,0.1,0.1,0.1,0.1v0.1l1.3-0.8L18.6,21.1z"/>
		<path class="st0" d="M14.4,22.2c-0.9-0.2-1.5-0.7-1.8-1.6c-0.1-0.2-0.1-0.2-0.3-0.2c-0.1,0-0.1,0-0.1,0h-0.1H12
			c-0.1,0-0.1,0-0.2,0.1c-0.1,0.1-0.1,0.2-0.1,0.2l0,0c0,0.9,0,1.9,0,2.8c0,0.1,0,0.1,0,0.1v0.1v0.1h2.4v-0.1c0-0.1,0.1-0.2,0.1-0.4
			l0,0c0.1-0.3,0.1-0.5,0.2-0.8c0-0.1,0-0.2,0-0.2C14.6,22.2,14.5,22.2,14.4,22.2z"/>
		<path class="st0" d="M12.5,19.3c0.2-0.6,0.5-1.1,1.1-1.4h0.1v-0.1c-0.1-0.5-0.2-1-0.2-1.5c-0.2-1.3-0.4-2.4-0.5-3.6
			c-0.1-0.7-0.2-1.4-0.9-1.8L11.9,11v8.4L12.5,19.3L12.5,19.3z"/>
		<path class="st0" d="M18.1,12.8L18.1,12.8L18.1,12.8z"/>
		<path class="st0" d="M18,27l0.2-0.1c0.7-0.6,1-1.3,1.2-1.9l0.1-0.1H18V27L18,27z"/>
		<path class="st0" d="M22,12.5c-0.1,0.6-0.2,1.2-0.3,1.8l0,0c0,0.3-0.1,0.6-0.1,0.9c-0.1,0.3-0.1,0.6-0.1,0.9
			c-0.1,0.5-0.2,1.1-0.3,1.7c0,0.2,0.1,0.3,0.2,0.4c0.2,0.1,0.4,0.3,0.5,0.5s0.2,0.3,0.3,0.5c0.1,0.1,0.1,0.2,0.1,0.3v0.1l0.5-0.1
			v-8.4l-0.2,0.2C22.3,11.5,22,11.9,22,12.5z"/>
		<path class="st0" d="M8.3,5.9v20.8l9.2,4l9.2-4V5.9C26.6,5.9,8.3,5.9,8.3,5.9z M24,24.7h-0.2c-0.2,0-0.5,0-0.7,0
			c-0.4,0-0.8,0-1.1,0h-1.6v0.1c0,0.1-0.1,0.2-0.1,0.3c-0.1,0.2-0.1,0.4-0.2,0.5c-0.4,1-1.1,1.8-2.1,2.6c-0.3,0.2-0.4,0.3-0.5,0.3
			s-0.3-0.1-0.5-0.3c-1-0.7-1.7-1.5-2.1-2.4c-0.1-0.2-0.2-0.4-0.2-0.6c0-0.1-0.1-0.2-0.1-0.3v-0.1H11V8.9L11.1,9
			c0.2,0.1,0.4,0.2,0.6,0.3c1.1,0.6,1.8,1.4,2.1,2.5c0.1,0.4,0.2,0.8,0.2,1.2v0.1c0,0.2,0.1,0.3,0.1,0.5c0.3,1.7,0.5,3.4,0.8,5.1
			v0.1h-0.1c-0.1,0-0.1,0-0.2,0.1C14.4,19,14.2,19,14,19.2c-0.4,0.3-0.5,0.7-0.4,1.2s0.5,0.8,1,0.9c0.1,0,0.1,0,0.2,0
			c0.2,0,0.3-0.1,0.5-0.3c0.7-1.4,1.2-2.7,1.3-4.1c0.1-0.7,0.2-1.5,0.2-2.3c0-0.7-0.1-1.4-0.1-2.1c0-0.4,0-0.8-0.1-1.2
			c0-0.8-0.1-1.7,0.2-2.6c0.2-0.7,0.3-1,0.7-1.2h0.1h0.1c0.5,0.5,0.7,1.2,0.7,1.9c0.1,1.1,0,2.3-0.1,3.4l0,0c0,0.3-0.1,0.5-0.1,0.8
			c-0.2,2.4,0.3,4.7,1.3,6.7c0,0.1,0.1,0.1,0.1,0.2l0,0c0.1,0.1,0.1,0.2,0.1,0.3c0.1,0.3,0.3,0.4,0.6,0.3c0.6-0.1,1-0.5,1.1-1
			s-0.1-1-0.5-1.2c-0.2-0.1-0.3-0.2-0.5-0.2l-0.2-0.1l0.2-1.2c0.1-0.5,0.2-1,0.2-1.5c0.1-0.7,0.2-1.3,0.3-2v-0.1l0.3-1.7
			c0.2-1.1,0.8-2,1.8-2.7c0.3-0.2,0.5-0.3,0.8-0.4c0,0,0.1,0,0.2-0.1l0,0V24.7L24,24.7z"/>
		<path class="st0" d="M22.3,20.4c-0.3,1-1,1.6-2,1.8h-0.1l0.2,1.5h2.5v-3.4L22.3,20.4L22.3,20.4z"/>
		<path class="st0" d="M19.1,22.3L19.1,22.3c-0.8,0.3-1.2,0.9-1.1,1.4v0.1h0.6c0.2,0,0.4,0,0.6,0c0.1,0,0.2-0.2,0.2-0.3
			C19.4,23.1,19.3,22.8,19.1,22.3L19.1,22.3L19.1,22.3z"/>
	</g>
</g>
<polygon class="st1" points="0,34.7 7.1,27.5 7.5,27.2 7.4,25.4 7.1,25.6 0,32.8 "/>
<polygon class="st1" points="34.7,13.9 34.7,15.8 26.6,23.9 26.6,21.9 27.8,20.8 "/>
<polygon class="st1" points="0,29.3 7.1,22.1 7.5,21.8 7.4,19.9 7.1,20.3 0,27.4 "/>
<polygon class="st1" points="34.7,8.6 34.7,10.5 27.8,17.3 26.6,18.5 26.6,16.6 "/>
<polygon class="st1" points="0,23.9 7.1,16.8 7.5,16.4 7.3,14.7 7.1,14.9 0,22 "/>
<polygon class="st1" points="34.7,3.2 34.7,5.1 27.8,12 26.6,13.1 26.6,11.2 27.8,10.1 "/>
<polygon class="st1" points="0,18.6 7.1,11.4 7.5,11.1 7.2,9.4 7.1,9.5 0,16.6 "/>
<polygon class="st1" points="34.4,0 26.6,7.8 26.6,5.9 27.8,4.7 27.8,4.7 32.5,0 "/>
<polyline class="st2" points="-222.8,129.7 -224.7,129.7 -224.7,129.7 "/>
<line class="st2" x1="-222.5" y1="134.8" x2="-222.5" y2="132.9"/>
</svg>
